# xmcd
#
# Track frame offsets:
#	150
#	17129
#	30754
#
# Disc length: 648 seconds
#
# Revision: 0
# Processed by: cddbd v1.5.2PL0 Copyright (c) Steve Scherf et al.
# Submitted via: audiograbber 1.83.01
#
DISCID=13028603
DTITLE=For Promotion Onley - Maxim
DYEAR=2005
DGENRE=
TTITLE0=I Dont Care
TTITLE1=Violator
TTITLE2=FallenAngel
EXTD=
EXTT0=
EXTT1=
EXTT2=
PLAYORDER=
